<svg width="180" height="61" viewBox="0 0 180 61" fill="none" xmlns="http://www.w3.org/2000/svg">
<rect x="0.75" y="0.189941" width="178.75" height="60" rx="6" fill="#3B5998"/>
<path d="M88.2562 20.1435C89.1313 19.3119 90.3703 19.0293 91.5444 18.9966C92.7838 18.9856 94.023 18.9911 95.262 18.9911C95.2674 20.301 95.2674 21.6054 95.262 22.9153C94.4632 22.9153 93.6586 22.9153 92.8598 22.9153C92.3542 22.8825 91.8325 23.2684 91.7401 23.774C91.7292 24.6492 91.7347 25.5241 91.7347 26.3992C92.9085 26.4047 94.0827 26.3992 95.2565 26.4047C95.1696 27.6709 95.0121 28.932 94.8273 30.1822C93.7891 30.1932 92.751 30.1822 91.7129 30.1877C91.702 33.9216 91.7183 37.65 91.7074 41.3843C90.1637 41.3897 88.6257 41.3788 87.082 41.3897C87.0547 37.6558 87.082 33.9219 87.0656 30.1877C86.3156 30.1822 85.5601 30.1932 84.81 30.1822C84.8155 28.9266 84.81 27.6713 84.81 26.4211C85.5601 26.4102 86.3156 26.4211 87.0656 26.4156C87.0874 25.1981 87.0438 23.9752 87.0874 22.7577C87.1693 21.7851 87.5334 20.812 88.2562 20.1435Z" fill="white"/>
</svg>
