<svg width="179" height="61" viewBox="0 0 179 61" fill="none" xmlns="http://www.w3.org/2000/svg">
<rect y="0.189941" width="178.75" height="60" rx="6" fill="#F00075"/>
<path d="M94.13 18.9897H84.6312C81.0703 18.9897 78.18 21.8801 78.18 25.4178V34.9824C78.18 38.5006 81.0703 41.3897 84.6312 41.3897H94.1288C97.6908 41.3897 100.58 38.5006 100.58 34.9605V25.419C100.581 21.8801 97.6908 18.9897 94.13 18.9897ZM83.556 30.1904C83.556 26.9721 86.1672 24.3657 89.3806 24.3657C92.594 24.3657 95.204 26.9721 95.204 30.1904C95.204 33.4087 92.5928 36.0137 89.3806 36.0137C86.1672 36.0137 83.556 33.4087 83.556 30.1904ZM95.7879 24.9265C95.0382 24.9265 94.4421 24.3328 94.4421 23.5831C94.4421 22.8334 95.037 22.2385 95.7879 22.2385C96.5364 22.2385 97.1313 22.8334 97.1313 23.5831C97.1313 24.3328 96.5364 24.9265 95.7879 24.9265Z" fill="white"/>
<path d="M89.3806 26.3823C87.2705 26.3823 85.5723 28.0865 85.5723 30.1906C85.5723 32.2935 87.2705 33.9989 89.3806 33.9989C91.492 33.9989 93.1889 32.2935 93.1889 30.1906C93.1889 28.0878 91.4664 26.3823 89.3806 26.3823Z" fill="white"/>
</svg>
