<svg width="24" height="24" viewBox="0 0 24 24" fill="none" xmlns="http://www.w3.org/2000/svg">
<path fill-rule="evenodd" clip-rule="evenodd" d="M12 23.0898C18.3512 23.0898 23.5 17.9411 23.5 11.5898C23.5 5.23862 18.3512 0.0898438 12 0.0898438C5.64878 0.0898438 0.5 5.23862 0.5 11.5898C0.5 17.9411 5.64878 23.0898 12 23.0898ZM17.4204 9.62334V9.65209C17.8742 10.9041 17.8742 12.2756 17.4204 13.5276V13.5563C17.014 14.6656 16.2767 15.6233 15.3082 16.2999C14.3397 16.9765 13.1868 17.3394 12.0054 17.3394C10.824 17.3394 9.67109 16.9765 8.70262 16.2999C7.73415 15.6233 6.99683 14.6656 6.5904 13.5563V13.5276C6.13659 12.2756 6.13659 10.9041 6.5904 9.65209V9.62334C6.99673 8.51395 7.73401 7.55613 8.70249 6.87945C9.67098 6.20277 10.8239 5.83988 12.0054 5.83988C13.1869 5.83988 14.3398 6.20277 15.3083 6.87945C16.2768 7.55613 17.0141 8.51395 17.4204 9.62334ZM8.6029 10.4364H7.53041C7.33041 11.1924 7.33041 11.9873 7.53041 12.7433H8.6029C8.51063 11.9771 8.51063 11.2026 8.6029 10.4364ZM8.81059 13.8965H8.00329C8.34898 14.4871 8.8217 14.9933 9.3872 15.3786C9.13937 14.9081 8.94593 14.4108 8.81059 13.8965ZM8.00329 9.28317H8.81059C8.94042 8.76958 9.12807 8.27236 9.36995 7.80105C8.8107 8.1883 8.34401 8.69442 8.00329 9.28317ZM10.0158 13.8965C10.2114 14.753 10.7089 15.5105 11.4172 16.0302V13.8967L10.0158 13.8965ZM9.76785 12.7433H11.417V10.4364H9.76785C9.66022 11.2016 9.66022 11.9781 9.76785 12.7433ZM10.0158 9.28317H11.4172V7.14946C10.7089 7.66922 10.2114 8.42666 10.0158 9.28317ZM15.177 9.28317H15.9843C15.6386 8.69262 15.1659 8.18635 14.6004 7.80105C14.8483 8.2716 15.0416 8.76884 15.177 9.28317ZM13.9718 9.28317C13.7763 8.4267 13.2789 7.66926 12.5706 7.14946V9.28317H13.9718ZM12.5706 13.8965V16.0302C13.2789 15.5104 13.7763 14.753 13.9718 13.8965H12.5706ZM12.5706 12.7433H14.2197C14.3274 11.9781 14.3274 11.2016 14.2197 10.4364H12.5706V12.7433ZM15.1945 13.8965C15.0591 14.4108 14.8655 14.9081 14.6176 15.3786C15.1833 14.9935 15.6562 14.4873 16.002 13.8967H15.1947L15.1945 13.8965ZM15.3847 12.7433H16.4574C16.6575 11.9873 16.6575 11.1924 16.4574 10.4364H15.3847C15.4314 10.8191 15.4546 11.2044 15.4539 11.5898C15.4548 11.9754 15.4315 12.3606 15.3847 12.7433Z" fill="black"/>
</svg>
