<svg width="26" height="19" viewBox="0 0 26 19" fill="none" xmlns="http://www.w3.org/2000/svg">
<g clip-path="url(#clip0_8_206)">
<mask id="mask0_8_206" style="mask-type:alpha" maskUnits="userSpaceOnUse" x="0" y="0" width="26" height="19">
<path d="M22.8 0.5H2.4C1.07452 0.5 0 1.57452 0 2.9V16.1C0 17.4255 1.07452 18.5 2.4 18.5H22.8C24.1255 18.5 25.2 17.4255 25.2 16.1V2.9C25.2 1.57452 24.1255 0.5 22.8 0.5Z" fill="white"/>
</mask>
<g mask="url(#mask0_8_206)">
<path d="M22.8 0.5H2.4C1.07452 0.5 0 1.57452 0 2.9V16.1C0 17.4255 1.07452 18.5 2.4 18.5H22.8C24.1255 18.5 25.2 17.4255 25.2 16.1V2.9C25.2 1.57452 24.1255 0.5 22.8 0.5Z" fill="#0034A9"/>
<path fill-rule="evenodd" clip-rule="evenodd" d="M0 12.5H25.2V18.5H0V12.5Z" fill="#D7280F"/>
<path fill-rule="evenodd" clip-rule="evenodd" d="M0 0.5H25.2V6.5H0V0.5Z" fill="white"/>
<path d="M22.8001 1.10001H2.4001C1.40599 1.10001 0.600098 1.90589 0.600098 2.90001V16.1C0.600098 17.0941 1.40599 17.9 2.4001 17.9H22.8001C23.7942 17.9 24.6001 17.0941 24.6001 16.1V2.90001C24.6001 1.90589 23.7942 1.10001 22.8001 1.10001Z" stroke="black" stroke-opacity="0.1"/>
</g>
</g>
<defs>
<clipPath id="clip0_8_206">
<rect width="25.2" height="18" fill="white" transform="translate(0 0.5)"/>
</clipPath>
</defs>
</svg>
