<svg width="180" height="61" viewBox="0 0 180 61" fill="none" xmlns="http://www.w3.org/2000/svg">
<rect x="0.5" y="0.189941" width="178.75" height="60" rx="6" fill="#1D98DC"/>
<path d="M99.1703 21.1145C99.1703 21.1145 101.242 20.3065 101.07 22.2688C101.012 23.0768 100.494 25.9048 100.091 28.9637L98.7098 38.0249C98.7098 38.0249 98.5947 39.3523 97.5586 39.5831C96.5225 39.814 94.9684 38.7751 94.6806 38.5443C94.4504 38.3712 90.3636 35.774 88.9246 34.5043C88.5217 34.158 88.0612 33.4654 88.9822 32.6574L95.026 26.886C95.7167 26.1934 96.4074 24.5774 93.5294 26.5397L85.471 32.0226C85.471 32.0226 84.55 32.5997 82.8232 32.0803L79.0818 30.926C79.0818 30.926 77.7004 30.0603 80.0603 29.1945C85.8164 26.4819 92.8963 23.7116 99.1703 21.1145Z" fill="white"/>
</svg>
