<svg width="180" height="61" viewBox="0 0 180 61" fill="none" xmlns="http://www.w3.org/2000/svg">
<rect x="0.75" y="0.189941" width="178.75" height="60" rx="6" fill="black"/>
<path d="M94.6 23.82C93.9164 23.0396 93.5397 22.0374 93.54 21H90.45V33.4C90.4262 34.071 90.1429 34.7066 89.6598 35.1729C89.1767 35.6393 88.5315 35.8999 87.86 35.9C86.44 35.9 85.26 34.74 85.26 33.3C85.26 31.58 86.92 30.29 88.63 30.82V27.66C85.18 27.2 82.16 29.88 82.16 33.3C82.16 36.63 84.92 39 87.85 39C90.99 39 93.54 36.45 93.54 33.3V27.01C94.793 27.9099 96.2974 28.3926 97.84 28.39V25.3C97.84 25.3 95.96 25.39 94.6 23.82Z" fill="white"/>
</svg>
