<svg width="179" height="61" viewBox="0 0 179 61" fill="none" xmlns="http://www.w3.org/2000/svg">
<rect x="0.25" y="0.189941" width="178.75" height="60" rx="6" fill="#CC181E"/>
<path d="M101.096 25.1129C100.873 23.352 99.8554 22.2474 98.0498 22.0843C95.9824 21.8975 91.5069 21.79 89.431 21.79C85.1849 21.79 83.2873 21.8938 81.2793 22.1016C79.3658 22.2993 78.5281 23.1496 78.1988 24.9051C77.9682 26.1353 77.87 27.2874 77.87 30.0104C77.87 32.4565 77.9855 33.9948 78.1643 35.2891C78.41 37.0664 79.6301 38.0652 81.418 38.214C83.4981 38.3873 87.665 38.4737 89.7253 38.4737C91.716 38.4737 96.1961 38.37 98.1881 38.1448C99.971 37.9433 100.819 36.991 101.096 35.2372C101.096 35.2372 101.39 33.3161 101.39 29.9932C101.39 28.1011 101.252 26.3414 101.096 25.1129ZM87.1292 33.4375V26.6762L93.5671 30.0223L87.1292 33.4375Z" fill="white"/>
</svg>
